<svg width="39" height="25" viewBox="0 0 39 25" fill="none" xmlns="http://www.w3.org/2000/svg">
<path d="M0.5 7C0.5 3.41015 3.41015 0.5 7 0.5H32C35.5899 0.5 38.5 3.41015 38.5 7V18C38.5 21.5899 35.5899 24.5 32 24.5H7C3.41015 24.5 0.5 21.5899 0.5 18V7Z" stroke="#004FFF" stroke-opacity="0.75"/>
<path d="M16.644 17H18.156L14.516 7.2H12.92L9.28 17H10.792L11.618 14.648H15.818L16.644 17ZM12.066 13.36L13.718 8.698L15.356 13.36H12.066ZM22.5356 7.2H19.4136V17H20.8136V13.598H22.5356C24.7476 13.598 26.0776 12.198 26.0776 10.406C26.0776 8.614 24.7476 7.2 22.5356 7.2ZM22.5356 12.324H20.8136V8.474H22.5356C23.8516 8.474 24.6356 9.258 24.6356 10.406C24.6356 11.554 23.8516 12.324 22.5356 12.324ZM27.6167 7.2V17H29.0167V7.2H27.6167Z" fill="white"/>
</svg>
