<svg width="360" height="640" viewBox="0 0 360 640" fill="none" xmlns="http://www.w3.org/2000/svg">
<g clip-path="url(#clip0)">
<rect width="360" height="640" rx="5" fill="none"/>
<g opacity="0.5">
<path opacity="0.7" d="M18.3132 669.854L18.2697 669.563C27.4832 663.627 35.8346 652.391 42.421 637.07C48.2036 623.617 52.517 607.199 54.565 590.841C56.6656 574.069 56.9894 557.275 57.3025 541.037C57.5706 527.109 57.8494 512.703 59.2444 498.346C67.1392 417.131 114.98 335.712 168.162 312.986C170.646 311.925 173.205 310.943 175.68 309.994C185.384 306.275 195.419 302.428 203.914 292.687C211.692 283.769 217.407 270.683 220.441 254.845C223.127 240.83 223.573 225.342 221.701 211.237C219.764 196.65 215.987 183.135 212.335 170.067C209.24 158.99 206.04 147.538 203.962 135.457C200.653 116.209 200.218 94.4091 202.705 72.4148C205.193 50.4118 210.607 28.2143 218.359 8.22325C226.115 -11.7781 236.621 -30.6165 248.739 -46.2572C260.862 -61.9051 274.591 -74.3398 288.44 -82.2172L288.473 -81.9196C274.651 -74.0588 260.95 -61.6496 248.852 -46.0323C236.758 -30.4221 226.274 -11.621 218.533 8.33838C210.797 28.2889 205.395 50.4416 202.911 72.4011C200.43 94.3519 200.863 116.107 204.166 135.316C206.24 147.377 209.438 158.823 212.531 169.891C216.186 182.971 219.966 196.496 221.906 211.111C223.785 225.263 223.337 240.804 220.641 254.869C217.59 270.792 211.841 283.953 204.013 292.927C195.475 302.717 185.414 306.574 175.686 310.303C173.212 311.251 170.654 312.231 168.174 313.292C115.087 335.977 67.3288 417.253 59.4495 498.322C58.0555 512.662 57.778 527.056 57.5097 540.976C57.1955 557.229 56.8704 574.034 54.7681 590.831C52.7137 607.236 48.3873 623.704 42.5856 637.2C35.9719 652.594 27.5766 663.885 18.3132 669.854Z" fill="url(#paint0_linear)"/>
<path opacity="0.7" d="M16.9823 669.065L16.9003 668.662C25.13 662.455 32.8592 650.944 39.2511 635.374C44.7779 621.914 49.2398 605.536 51.8173 589.257C52.1301 587.278 52.4365 585.215 52.7267 583.124C54.6265 569.431 55.4872 556.053 56.3187 543.114C57.1948 529.495 58.101 515.412 60.2287 501.367C63.4661 479.997 70.3573 458.22 76.6713 439.736C84.6816 416.284 92.1007 398.288 100.018 383.099C112.03 360.07 126.397 340.658 141.563 326.961C148.317 320.847 154.853 316.038 161.542 312.262C165.191 310.201 168.968 308.456 172.966 306.609C176.573 304.942 180.305 303.22 183.901 301.253C189.57 298.152 194.028 294.841 197.929 290.832C205.779 282.731 211.656 271.52 215.395 257.51C218.856 244.542 220.24 229.953 219.292 216.432C218.358 203.281 215.779 191.019 213.283 179.16C211.086 168.718 208.814 157.92 207.625 146.42C205.805 128.773 206.647 108.728 210.061 88.4525C213.677 66.9216 220.199 45.0101 228.924 25.0887C237.463 5.60901 248.614 -13.0804 261.17 -28.9579C273.7 -44.8042 287.702 -57.9428 301.66 -66.9529L301.723 -66.5338C287.798 -57.5458 273.831 -44.4389 261.33 -28.6304C248.803 -12.7899 237.681 5.85336 229.164 25.2831C220.463 45.1505 213.957 67.0007 210.353 88.4729C206.95 108.687 206.11 128.668 207.924 146.257C209.11 157.728 211.378 168.511 213.572 178.94C216.072 190.816 218.656 203.098 219.592 216.287C220.545 229.883 219.152 244.555 215.671 257.599C211.956 271.522 205.864 283.14 198.057 291.196C194.129 295.235 189.644 298.568 183.944 301.683C180.339 303.654 176.604 305.38 172.993 307.048C169 308.892 165.228 310.634 161.59 312.69C154.922 316.455 148.408 321.248 141.673 327.344C126.547 341.003 112.219 360.365 100.239 383.334C92.3365 398.491 84.9306 416.458 76.9321 439.874C70.6293 458.326 63.7509 480.062 60.5218 501.377C58.3989 515.388 57.4932 529.455 56.6183 543.059C55.7845 556.01 54.9234 569.403 53.0211 583.123C52.7291 585.219 52.4225 587.287 52.109 589.269C49.5232 605.604 45.0441 622.041 39.4965 635.553C33.0651 651.22 25.2798 662.81 16.9823 669.065Z" fill="url(#paint1_linear)"/>
<path opacity="0.7" d="M15.6611 668.272L15.5228 667.769C31.6538 653.389 43.4292 616.962 49.07 587.668C49.4437 585.729 49.8177 583.71 50.1846 581.663C52.4278 569.099 53.7992 557.145 55.1257 545.585C56.7403 531.506 58.266 518.207 61.2161 504.378C64.3586 489.648 69.7499 474.233 75.4579 457.914C77.0294 453.422 78.6535 448.778 80.2461 444.102C81.5417 440.297 82.8107 436.526 84.0651 432.796C89.7108 416.015 95.0439 400.164 101.225 386.003C111.372 362.782 123.734 342.742 136.977 328.052C143.366 320.932 148.897 315.84 154.913 311.547C159.784 308.069 165.455 305.163 170.939 302.352C173.089 301.25 175.313 300.109 177.471 298.946C183.534 295.673 187.999 292.598 191.947 288.975C200.016 281.515 206.302 271.354 210.627 258.775C214.594 247.235 216.815 234.037 216.884 221.611C216.922 209.824 215.493 198.752 214.111 188.042C212.853 178.299 211.553 168.224 211.288 157.368C210.892 140.837 213.075 121.987 217.6 102.857C222.434 82.3417 230.005 61.2804 239.493 41.9511C258.496 3.29367 285.972 -30.8348 314.876 -51.681L314.976 -51.1489C286.145 -30.3555 258.74 3.68295 239.788 42.2382C230.33 61.5055 222.785 82.498 217.966 102.944C213.458 121.996 211.285 140.763 211.679 157.217C211.943 168.031 213.241 178.085 214.496 187.809C215.881 198.543 217.313 209.642 217.276 221.484C217.207 234.011 214.967 247.318 210.966 258.955C206.596 271.666 200.245 281.933 192.091 289.47C188.112 293.122 183.62 296.217 177.525 299.506C175.364 300.672 173.139 301.813 170.986 302.916C165.515 305.721 159.857 308.621 155.01 312.081C149.025 316.352 143.52 321.418 137.158 328.51C123.965 343.144 111.647 363.111 101.536 386.256C95.3704 400.378 90.0441 416.211 84.405 432.971C83.1504 436.702 81.8802 440.474 80.5841 444.282C78.9909 448.961 77.3656 453.607 75.7939 458.1C70.0964 474.39 64.7149 489.776 61.5855 504.447C58.6449 518.231 57.1228 531.507 55.5095 545.562C54.1816 557.137 52.8093 569.105 50.56 581.701C50.1934 583.75 49.8168 585.774 49.4441 587.716C43.7771 617.151 31.926 653.772 15.6611 668.272Z" fill="url(#paint2_linear)"/>
<path opacity="0.7" d="M14.3504 667.463L14.1362 666.887C31.0118 648.865 43.0417 600.47 46.3268 586.067C46.7787 584.087 47.2178 582.125 47.6468 580.189C50.0983 569.066 51.8681 558.716 53.5793 548.709C56.0032 534.536 58.2924 521.15 62.2094 507.368C65.0125 497.505 69.1112 487.113 73.4507 476.112C76.922 467.31 80.5128 458.208 83.8211 448.464C87.3793 437.985 90.394 427.799 93.3099 417.949C96.3567 407.653 99.2352 397.928 102.428 388.922C110.681 365.67 121.038 345.006 132.379 329.159C136.647 323.197 141.389 316.87 148.277 310.836C154.359 305.506 162.074 301.404 169.533 297.437L171.043 296.634C175.954 294.016 181.162 291.051 185.972 287.11C194.261 280.321 200.955 271.205 205.87 260.014C210.34 249.838 213.398 238.027 214.48 226.757C215.495 216.189 215.187 206.627 214.86 196.501C214.573 187.58 214.277 178.354 214.954 168.283C216.004 152.864 219.528 135.214 225.146 117.239C231.212 97.7367 239.83 77.5286 250.068 58.7995C270.492 21.5038 298.929 -13.1996 328.089 -36.4135L328.234 -35.7729C299.146 -12.6156 270.78 21.998 250.41 59.1952C240.207 77.8602 231.62 97.9983 225.576 117.429C219.985 135.316 216.479 152.871 215.435 168.199C214.761 178.215 215.058 187.413 215.344 196.308C215.671 206.469 215.98 216.065 214.958 226.705C213.864 238.098 210.773 250.039 206.254 260.328C201.279 271.656 194.505 280.88 186.123 287.745C181.276 291.718 176.042 294.698 171.109 297.327L169.598 298.131C162.165 302.084 154.477 306.172 148.444 311.46C141.612 317.444 136.901 323.729 132.661 329.654C121.373 345.425 111.062 366.001 102.842 389.155C99.6613 398.132 96.7874 407.842 93.7443 418.123C90.8253 427.985 87.8075 438.182 84.2411 448.682C80.9233 458.454 77.3281 467.57 73.851 476.385C69.5227 487.358 65.4342 497.723 62.6469 507.53C58.7489 521.249 56.4646 534.605 54.0461 548.745C52.332 558.767 50.5599 569.129 48.1012 580.281C47.6721 582.221 47.2321 584.184 46.7802 586.169C43.4798 600.638 31.3862 649.268 14.3504 667.463Z" fill="url(#paint3_linear)"/>
<path opacity="0.7" d="M13.0499 666.637L12.7353 666.022C22.0995 653.816 32.4784 626.376 43.5858 584.459L45.11 578.706C47.5225 569.584 49.4777 561.202 51.3691 553.095C54.8129 538.333 58.0658 524.388 63.2102 510.34C65.8035 503.258 69.2259 495.805 72.8491 487.912C77.6104 477.542 83.0071 465.787 87.3959 452.826C92.241 438.518 95.4976 424.903 98.6462 411.735C100.32 404.737 101.902 398.126 103.624 391.857C110.039 368.587 118.388 347.298 127.767 330.294C131.193 324.084 135.076 317.046 141.631 310.14C147.814 303.621 156.33 298.686 164.614 294.323C169.743 291.622 175.048 288.828 180.001 285.244C188.557 279.054 195.664 270.977 201.126 261.237C206.049 252.456 209.942 242.025 212.084 231.869C214.083 222.395 214.831 213.727 215.623 204.551C216.311 196.565 217.024 188.308 218.625 179.17C221.15 164.86 226.016 148.415 232.697 131.606C240.015 113.103 249.679 93.7513 260.643 75.6436C282.385 39.8111 311.782 4.53474 341.295 -21.1403L341.491 -20.3975C312.044 5.22043 282.714 40.4148 261.024 76.1607C250.096 94.2095 240.464 113.496 233.172 131.931C226.526 148.653 221.687 165.003 219.18 179.216C217.589 188.293 216.878 196.519 216.192 204.475C215.396 213.695 214.645 222.404 212.628 231.964C210.456 242.256 206.513 252.824 201.525 261.719C195.993 271.588 188.799 279.764 180.147 286.025C175.157 289.634 169.835 292.437 164.688 295.148C156.452 299.485 147.99 304.387 141.88 310.828C135.412 317.641 131.565 324.616 128.172 330.769C118.84 347.683 110.534 368.869 104.147 392.037C102.431 398.281 100.852 404.881 99.1813 411.868C96.0251 425.066 92.7607 438.714 87.8935 453.084C83.4818 466.112 78.0699 477.902 73.2946 488.302C69.683 496.169 66.2715 503.6 63.6969 510.629C58.5822 524.596 55.339 538.499 51.9052 553.219C50.0119 561.335 48.0545 569.728 45.6355 578.87L44.1104 584.625C32.9616 626.713 22.5098 654.307 13.0499 666.637Z" fill="url(#paint4_linear)"/>
<path opacity="0.7" d="M11.7631 665.786L11.3245 665.182C20.5008 650.195 30.6701 616.529 38.8413 589.477L40.8476 582.845C41.4272 580.935 42.0033 579.056 42.578 577.214C44.4342 571.246 46.0987 565.688 47.7075 560.31C52.8547 543.12 57.3005 528.273 64.2245 513.294C66.6167 508.118 69.5408 502.696 72.638 496.956C78.7845 485.56 85.7511 472.645 90.9732 457.189C96.725 440.16 99.6636 423.51 102.256 408.821C103.121 403.917 103.939 399.285 104.824 394.813C109.425 371.652 115.761 349.747 123.15 331.464L123.329 331.02C126.14 324.059 129.048 316.861 134.981 309.453C139.925 303.274 147.516 297.568 158.189 292.011C159.28 291.443 160.366 290.885 161.443 290.33C165.849 288.064 170.011 285.925 174.037 283.374C182.924 277.743 190.448 270.7 196.399 262.441C203.232 252.963 207.41 243.339 209.712 236.935C212.813 228.303 214.687 220.282 216.671 211.791C218.266 204.97 219.913 197.915 222.317 190.015C226.361 176.79 232.566 161.555 240.263 145.956C248.865 128.425 259.573 109.933 271.228 92.4795C294.084 58.3329 324.436 22.4865 354.504 -5.86618L354.757 -5.03026C324.743 23.2729 294.448 59.0498 271.639 93.1277C260.017 110.532 249.341 128.97 240.765 146.446C233.103 161.972 226.931 177.125 222.912 190.267C220.525 198.113 218.883 205.141 217.295 211.937C215.3 220.476 213.415 228.543 210.281 237.264C207.947 243.76 203.71 253.52 196.784 263.126C190.756 271.49 183.147 278.615 174.169 284.304C170.117 286.872 165.943 289.018 161.525 291.291C160.447 291.844 159.363 292.402 158.272 292.969C147.696 298.477 140.191 304.108 135.329 310.184C129.515 317.444 126.648 324.542 123.875 331.407L123.695 331.85C116.346 350.042 110.039 371.844 105.458 394.904C104.577 399.358 103.761 403.981 102.897 408.876C100.294 423.624 97.3437 440.339 91.5515 457.487C86.2876 473.07 79.2883 486.046 73.1127 497.494C70.027 503.213 67.1132 508.616 64.7407 513.751C57.8637 528.628 53.4345 543.423 48.3048 560.554C46.6943 565.936 45.028 571.499 43.1693 577.476C42.5961 579.314 42.021 581.188 41.443 583.094L39.4379 589.724C31.2408 616.863 21.038 650.638 11.7631 665.786Z" fill="url(#paint5_linear)"/>
<path opacity="0.7" d="M9.90149 664.372C15.0648 653.388 21.2485 633.796 27.7955 613.054C31.2162 602.216 34.7534 591.008 38.11 581.221C38.7534 579.344 39.3995 577.505 40.048 575.709L40.1035 575.556C49.171 550.373 55.1623 533.736 65.2471 516.232C67.3877 512.516 69.8462 508.655 72.4486 504.567C80.0173 492.679 88.596 479.205 94.5443 461.55C101.019 442.333 103.082 423.819 104.902 407.486C105.278 404.106 105.633 400.913 106.02 397.782C108.855 374.934 113.18 352.416 118.525 332.667L118.783 331.713C120.749 324.425 122.781 316.888 128.319 308.779C134.416 299.846 144.431 293.473 151.758 289.7C154.096 288.495 156.425 287.362 158.677 286.265C161.946 284.676 165.033 283.174 168.073 281.503C177.541 276.304 185.266 270.461 191.687 263.639C197.534 257.427 202.808 250.135 207.366 241.968C211.994 233.676 215.315 225.764 218.831 217.386C221.008 212.2 223.26 206.836 226.027 200.831C231.692 188.594 239.233 174.578 247.834 160.296C257.959 143.397 269.39 126.242 281.811 109.314C305.606 76.9646 336.11 41.4856 367.703 9.4137L368.019 10.3363C336.466 42.3696 306.002 77.7993 282.243 110.101C269.849 126.995 258.442 144.11 248.34 160.973C239.767 175.206 232.255 189.169 226.615 201.351C223.86 207.327 221.616 212.676 219.444 217.849C215.909 226.272 212.569 234.228 207.897 242.6C203.282 250.872 197.94 258.254 192.021 264.544C185.529 271.443 177.732 277.344 168.184 282.587C165.129 284.264 162.034 285.77 158.757 287.364C156.508 288.459 154.183 289.591 151.852 290.792C144.617 294.518 134.741 300.793 128.779 309.528C123.396 317.41 121.403 324.797 119.476 331.942L119.218 332.897C113.895 352.564 109.589 374.989 106.764 397.752C106.38 400.87 106.025 404.058 105.649 407.432C103.818 423.861 101.744 442.481 95.2044 461.888C89.1869 479.747 80.5517 493.311 72.9329 505.277C70.3391 509.35 67.8898 513.199 65.7668 516.883C55.756 534.259 49.7861 550.837 40.7498 575.931L40.6943 576.085C40.0483 577.871 39.4066 579.701 38.7659 581.569C35.4156 591.336 31.8819 602.53 28.4646 613.358C21.8985 634.161 15.6973 653.809 10.4827 664.904L9.90149 664.372Z" fill="url(#paint6_linear)"/>
<path opacity="0.7" d="M8.47402 663.604C10.5876 657.366 13.2257 648.552 16.2808 638.348C21.7553 620.063 28.569 597.308 35.3785 579.592C36.0982 577.718 36.8205 575.904 37.5258 574.199C47.9949 548.788 55.7893 533.871 66.2852 519.164C68.0713 516.662 70.0167 514.088 72.0767 511.361C80.7183 499.923 91.4726 485.689 98.12 465.914C105.214 444.81 106.123 424.748 106.924 407.049C107.022 404.908 107.117 402.813 107.221 400.768C108.381 378.331 110.632 355.834 113.909 333.901L114.071 332.809C115.218 325.069 116.405 317.065 121.66 308.118C127.971 297.365 139.2 290.515 145.331 287.39C148.985 285.526 152.584 283.925 156.064 282.375C158.114 281.463 160.134 280.564 162.117 279.634C172.326 274.843 180.464 270.002 186.994 264.835C193.209 259.917 199.118 254.081 205.058 246.991C212.743 237.82 218.308 229.252 225.353 218.407C226.755 216.249 228.216 213.999 229.766 211.636C237.685 199.603 246.315 187.154 255.419 174.633C267.258 158.264 279.703 141.95 292.403 126.146C315.446 97.5477 344.394 64.3647 380.903 24.6993L381.288 25.7021C344.798 65.3469 315.869 98.5079 292.846 127.081C280.162 142.864 267.734 159.158 255.908 175.508C246.818 188.01 238.201 200.439 230.296 212.449C228.749 214.81 227.289 217.058 225.888 219.215C218.813 230.106 213.225 238.708 205.483 247.948C199.487 255.103 193.521 260.996 187.244 265.963C180.657 271.175 172.464 276.05 162.195 280.869C160.207 281.802 158.184 282.703 156.127 283.617C152.656 285.163 149.067 286.76 145.431 288.613C139.401 291.687 128.37 298.406 122.234 308.861C117.173 317.48 116.017 325.28 114.899 332.822L114.736 333.917C111.469 355.785 109.225 378.215 108.067 400.587C107.964 402.628 107.87 404.718 107.773 406.854C106.965 424.691 106.05 444.906 98.8593 466.292C92.1124 486.363 81.264 500.722 72.5473 512.258C70.4934 514.976 68.5542 517.544 66.7804 520.03C56.3679 534.62 48.6268 549.439 38.217 574.707C37.5195 576.396 36.8028 578.194 36.0888 580.052C29.3083 597.695 22.5075 620.409 17.0422 638.659C13.9808 648.883 11.3372 657.712 9.21169 663.987L8.47402 663.604Z" fill="url(#paint7_linear)"/>
<path opacity="0.7" d="M7.04942 662.865C11.1586 643.965 21.1742 604.811 32.6518 577.957C33.4371 576.119 34.2301 574.345 35.0086 572.683C46.5528 547.958 55.9374 534.994 67.338 522.091C68.6112 520.649 69.9529 519.167 71.3415 517.633C81.5839 506.317 94.3299 492.235 101.695 470.278C109.348 447.464 108.876 425.118 108.498 407.164L108.427 403.764C108.035 382.493 108.314 360.692 109.305 335.15L109.343 334.157C109.64 326.282 109.977 317.354 114.996 307.468C119.472 298.649 128.186 290.489 138.905 285.078C143.961 282.525 148.888 280.604 153.652 278.747L156.165 277.763C166.749 273.593 175.246 270.003 182.313 266.037C190.769 261.292 197.688 256.059 202.771 252.03C213.117 243.831 221.452 235.811 233.525 222.443C241.586 213.55 251.14 202.589 262.203 189.897L270.924 179.834C280.585 168.675 291.535 156.027 302.998 142.974C314.043 130.428 325.456 117.626 337.54 104.071C356.394 82.9228 375.889 61.0562 394.103 39.9847L394.56 41.0623C376.338 62.1423 356.839 84.0145 337.982 105.166C325.9 118.718 314.487 131.519 303.447 144.06C291.988 157.109 281.04 169.754 271.381 180.911L262.656 190.978C251.589 203.675 242.03 214.641 233.96 223.543C221.833 236.972 213.456 245.032 203.05 253.278C197.936 257.33 190.974 262.595 182.457 267.375C175.348 271.366 166.821 274.968 156.206 279.151L153.69 280.135C148.944 281.985 144.036 283.899 139.015 286.435C128.519 291.733 120.019 299.659 115.695 308.182C110.899 317.624 110.586 325.911 110.283 333.926L110.246 334.919C109.257 360.42 108.978 382.183 109.37 403.411L109.439 406.807C109.821 424.936 110.299 447.495 102.517 470.693C95.0142 493.06 82.1304 507.294 71.7779 518.731C70.3925 520.261 69.0557 521.739 67.7861 523.176C56.4857 535.966 47.1837 548.818 35.7365 573.333C34.9684 574.973 34.1853 576.725 33.4094 578.54C21.9994 605.238 12.032 644.21 7.93984 663.031L7.04942 662.865Z" fill="url(#paint8_linear)"/>
<path opacity="0.7" d="M5.63344 662.15C7.57445 643.624 17.0973 603.488 29.9278 576.314C30.7714 574.526 31.6355 572.791 32.4969 571.157C45.0145 547.323 56.6232 535.731 68.4 525.016L70.0438 523.524C81.473 513.165 97.1252 498.976 105.27 474.641C113.443 450.221 111.375 426.597 109.713 407.614L109.639 406.765C107.664 383.978 106.339 362.624 105.17 343.786L104.663 335.647C104.132 327.242 103.531 317.715 108.331 306.828C112.573 297.2 121.599 288.206 132.476 282.767C138.473 279.769 144.288 277.805 150.213 275.893C154.525 274.502 158.526 273.296 162.395 272.13C167.87 270.478 173.042 268.92 177.636 267.248C186.309 264.092 194.054 260.344 200.486 257.094C212.382 251.082 223.194 244.729 237.291 233.262C246.472 225.822 257.372 216.022 270.613 203.297C282.568 191.751 296.628 177.522 313.595 159.801C351.513 120.291 382.163 86.1003 407.297 55.2746L407.83 56.4199C382.668 87.2804 351.989 121.503 314.04 161.043C297.061 178.779 282.988 193.022 271.018 204.582C257.746 217.334 246.818 227.161 237.609 234.623C223.432 246.155 212.564 252.541 200.607 258.584C194.151 261.846 186.376 265.609 177.66 268.779C173.045 270.458 167.863 272.021 162.376 273.674C158.511 274.839 154.514 276.044 150.209 277.433C144.316 279.334 138.534 281.287 132.593 284.256C121.989 289.557 113.225 298.244 109.15 307.493C104.597 317.82 105.153 326.637 105.692 335.164L106.198 343.304C107.366 362.129 108.69 383.468 110.663 406.23L110.737 407.079C112.418 426.279 114.511 450.174 106.17 475.095C97.8435 499.972 81.9912 514.341 70.4157 524.835L68.7742 526.325C57.1108 536.937 45.6172 548.412 33.2459 571.968C32.4 573.573 31.5508 575.278 30.7215 577.036C18.0093 603.959 8.5762 643.711 6.65401 662.057L5.63344 662.15Z" fill="url(#paint9_linear)"/>
<path opacity="0.7" d="M4.2311 661.445C4.2311 641.343 13.6687 600.759 27.2082 574.665C28.1191 572.909 29.0551 571.213 29.9892 569.627C43.3829 546.815 56.6431 537.223 69.4686 527.944C80.8247 519.73 99.8309 505.981 108.843 479.004C117.504 453.074 113.66 428.044 110.853 409.767C108.934 397.21 107.169 385.129 105.462 373.445C103.617 360.809 101.874 348.875 100.125 337.649L100.061 337.246C98.6648 328.291 97.0813 318.139 101.665 306.194C105.714 295.634 114.829 286.012 126.047 280.455C132.596 277.211 138.931 275.384 144.265 274.024C151.77 272.11 158.716 270.937 164.843 269.902C167.69 269.421 170.378 268.967 172.962 268.47C182.164 266.7 190.529 264.402 198.199 262.181C212.801 257.955 225.678 253.264 241.06 244.1C251.891 237.673 264.393 228.769 278.22 217.633C291.979 206.495 307.448 192.698 324.195 176.625C349.41 152.481 386.584 114.485 420.492 70.5672L421.103 71.7747C387.127 115.78 349.889 153.843 324.632 178.025C307.855 194.126 292.355 207.95 278.563 219.116C264.687 230.291 252.136 239.23 241.257 245.686C225.781 254.905 212.839 259.621 198.168 263.867C190.48 266.092 182.092 268.396 172.86 270.173C170.267 270.672 167.573 271.126 164.723 271.608C158.61 272.64 151.683 273.81 144.209 275.715C138.921 277.064 132.642 278.875 126.173 282.08C115.284 287.473 106.475 296.715 102.606 306.8C98.2821 318.068 99.8109 327.87 101.16 336.518L101.222 336.922C102.973 348.158 104.717 360.097 106.563 372.738C108.269 384.42 110.032 396.496 111.951 409.045C114.797 427.571 118.693 452.942 109.823 479.498C100.579 507.172 81.2833 521.129 69.7552 529.469C57.0627 538.651 43.9375 548.145 30.7496 570.608C29.8365 572.159 28.9218 573.817 28.03 575.536C15.0533 600.545 5.35555 641.321 5.35472 661.072L4.2311 661.445Z" fill="url(#paint10_linear)"/>
<path opacity="0.7" d="M2.84244 660.739C0.891723 640.771 9.73749 599.012 24.4936 573.012C25.4726 571.288 26.4802 569.633 27.4885 568.091C40.9077 547.545 54.2824 540.024 68.4437 532.063L70.5443 530.88C85.4752 522.453 103.727 509.437 112.418 483.366C120.81 458.195 116.641 433.729 112.073 412.773L110.194 404.109C105.148 380.847 100.381 358.874 95.5498 338.89C93.2503 329.382 90.6441 318.605 95.0051 305.564C99.5224 292.039 110.684 282.532 119.622 278.143C125.125 275.441 131.068 273.539 138.322 272.154C147.533 270.396 156.005 270.118 163.479 269.873C165.119 269.82 166.724 269.768 168.292 269.7C178.663 269.263 188.072 268.234 195.907 267.284C210.477 265.516 226.488 262.8 244.83 254.951C257.294 249.638 271.088 241.907 285.831 231.97C301.03 221.68 317.506 208.718 334.8 193.448C360.554 170.755 398.617 133.67 433.685 85.8636L434.378 87.1269C399.205 135.075 361.042 172.26 335.222 195.011C317.881 210.323 301.355 223.322 286.105 233.648C271.297 243.627 257.437 251.395 244.908 256.735C226.457 264.63 210.372 267.361 195.738 269.136C187.887 270.086 178.46 271.118 168.061 271.557C166.49 271.624 164.883 271.676 163.241 271.73C155.796 271.973 147.357 272.251 138.209 273.996C131.037 275.366 125.172 277.241 119.753 279.903C111.116 284.143 100.358 293.252 96.0651 306.099C91.9673 318.354 94.4827 328.756 96.702 337.934C101.54 357.941 106.308 379.926 111.357 403.201L113.237 411.862C117.877 433.151 122.104 458.031 113.479 483.901C104.533 510.738 85.9358 524.029 70.733 532.61L68.6307 533.793C54.6351 541.661 41.4159 549.094 28.251 569.252C27.27 570.752 26.2902 572.363 25.3366 574.042C10.8365 599.587 2.13773 640.539 4.04712 660.087L2.84244 660.739Z" fill="url(#paint11_linear)"/>
<path opacity="0.7" d="M1.46222 660.029C-2.76791 637.656 6.91821 595.393 21.7825 571.36C22.8229 569.677 23.9022 568.061 24.9927 566.557C38.7118 547.592 52.5611 541.805 67.2234 535.679C68.6878 535.067 70.1539 534.455 71.6231 533.826C94.3975 524.09 108.911 509.012 115.993 487.733C124.33 462.68 119.624 438.345 113.298 415.778C106.809 392.588 99.082 365.464 90.9771 340.124C87.9603 330.783 84.2054 319.155 88.3431 304.941C91.1303 295.361 99.124 282.683 113.197 275.833C119.032 272.992 125.127 271.231 132.38 270.288C142.62 268.957 152.131 269.857 160.522 270.651L163.619 270.94C172.648 271.757 181.897 272.207 193.609 272.398C209.183 272.564 227.898 271.913 248.595 265.817C262.648 261.693 277.737 255.133 293.444 246.316C309.971 237.001 327.455 224.874 345.408 210.275C383.514 179.341 418.602 141.611 446.879 101.164L447.655 102.477C419.266 143.085 384.049 180.955 345.811 211.997C327.793 226.65 310.242 238.822 293.646 248.176C277.861 257.035 262.694 263.63 248.564 267.776C227.752 273.906 208.957 274.562 193.317 274.394C181.582 274.203 172.315 273.754 163.265 272.935L160.165 272.646C151.816 271.856 142.354 270.96 132.206 272.279C125.06 273.207 119.062 274.939 113.333 277.728C104.863 281.85 93.5442 291.571 89.521 305.397C85.6423 318.72 89.2648 329.938 92.1765 338.952C100.292 364.325 108.025 391.469 114.519 414.679C120.96 437.649 125.734 462.467 117.136 488.305C109.821 510.285 94.9621 525.803 71.7092 535.742C70.2366 536.37 68.7675 536.985 67.3012 537.598C52.8297 543.645 39.1619 549.357 25.7461 567.9C24.6907 569.357 23.6453 570.922 22.6374 572.553C8.09621 596.062 -1.3934 637.32 2.72651 659.111L1.46222 660.029Z" fill="url(#paint12_linear)"/>
<path opacity="0.7" d="M0.0895271 659.307C-6.16731 636.521 2.8822 593.811 19.0766 569.699C20.1887 568.043 21.3403 566.468 22.5018 565.016C36.6762 547.268 51.83 542.869 66.4848 538.615C68.558 538.013 70.6321 537.411 72.704 536.773C88.9788 531.758 110.32 519.937 119.568 492.093C128.247 465.965 121.89 440.37 114.526 418.78C104.239 388.584 95.0418 363.256 86.4077 341.349C82.777 332.19 77.8018 319.644 81.6819 304.32C85.6594 288.606 97.6823 277.906 106.77 273.521C112.848 270.585 119.283 268.917 126.44 268.421C137.278 267.614 147.513 269.774 156.542 271.679L158.943 272.183C169.202 274.322 179.788 276.066 191.302 277.514C214.946 280.398 233.777 280.142 252.355 276.683C267.986 273.787 284.371 268.395 301.057 260.661C318.874 252.37 337.365 241.078 356.016 227.095C395.459 197.571 431.44 159.315 460.069 116.462L460.931 117.82C432.159 160.886 396.01 199.324 356.394 228.979C337.662 243.022 319.086 254.367 301.183 262.696C284.411 270.472 267.938 275.891 252.221 278.803C233.547 282.28 214.633 282.539 190.895 279.642C179.356 278.192 168.749 276.445 158.468 274.301L156.065 273.795C146.652 271.81 136.919 269.755 126.202 270.555C119.17 271.041 112.861 272.675 106.912 275.547C98.2086 279.748 86.7171 289.901 82.975 304.686C79.3435 319.03 84.1428 331.136 87.6472 339.974C96.2931 361.91 105.501 387.266 115.798 417.491C123.307 439.508 129.773 465.661 120.791 492.702C111.207 521.557 89.3396 533.731 72.6822 538.862C70.605 539.503 68.5272 540.106 66.4479 540.71C51.9976 544.904 37.0558 549.243 23.2367 566.546C22.1174 567.945 21.0073 569.464 19.9351 571.06C4.4478 594.119 -4.55956 636.437 1.39974 658.137L0.0895271 659.307Z" fill="url(#paint13_linear)"/>
<path opacity="0.7" d="M-1.27774 658.579C-9.40274 635.689 -0.82447 591.689 16.3736 568.04C17.5536 566.418 18.7778 564.883 20.0145 563.479C34.736 546.734 50.6426 543.908 66.0258 541.175C68.5733 540.722 71.2073 540.254 73.7816 539.731C87.8035 536.878 112.86 527.464 123.142 496.461C132.124 469.373 124.448 443.512 115.755 421.785C103.953 392.268 92.8588 366.357 81.8404 342.574C77.6888 333.643 71.4143 320.146 75.0232 303.703C77.3266 293.207 85.3408 278.398 100.344 271.211C106.656 268.189 113.249 266.666 120.502 266.558C131.827 266.35 142.246 269.64 152.322 272.822L154.267 273.436C165.649 277.011 177.332 280.108 188.995 282.639C213.966 288.001 235.294 289.566 256.115 287.562C273.336 285.912 291.019 281.69 308.673 275.014C327.754 267.777 347.254 257.318 366.628 243.923C407.487 215.705 444.36 176.923 473.261 131.769L474.21 133.17C445.136 178.595 408.056 217.599 366.978 245.968C347.505 259.43 327.905 269.945 308.721 277.219C290.973 283.931 273.196 288.175 255.884 289.834C234.966 291.849 213.548 290.279 188.482 284.896C176.793 282.358 165.083 279.255 153.676 275.671L151.729 275.057C141.722 271.896 131.375 268.629 120.196 268.835C113.094 268.94 106.65 270.425 100.493 273.373C86.1845 280.227 78.5874 294.144 76.4288 303.979C73.3112 318.18 77.814 329.598 83.1182 341.007C94.1522 364.823 105.259 390.764 117.074 420.314C120.788 429.595 125.321 442.005 127.422 455.7C129.711 470.622 128.737 484.167 124.446 497.108C113.758 529.341 88.0373 539.06 73.6561 541.987C71.0696 542.512 68.4287 542.982 65.8751 543.436C50.7167 546.129 35.042 548.914 20.7246 565.199C19.5379 566.548 18.3622 568.021 17.229 569.579C0.559686 592.498 -7.77958 635.073 0.0688713 657.181L-1.27774 658.579Z" fill="url(#paint14_linear)" fill-opacity="0.85"/>
<path opacity="0.7" d="M-2.64389 657.841C-12.7493 634.372 -4.81965 589.921 13.6728 566.379C14.9221 564.788 16.22 563.295 17.5308 561.94C32.8549 546.072 49.5661 544.766 65.7266 543.504C68.7311 543.268 71.8373 543.025 74.8598 542.692C111.457 538.639 123.804 509.621 126.718 500.824C136.043 472.653 126.416 445.391 116.987 424.786C103.888 396.151 90.5259 368.9 77.2726 343.792C71.0832 332.082 65.2949 319.293 68.3652 303.088C71.5348 286.353 83.4825 273.859 93.9178 268.899C100.444 265.798 107.198 264.423 114.564 264.695C126.154 265.102 137.02 269.548 147.528 273.847L149.585 274.687C161.808 279.716 174.289 284.114 186.681 287.762C212.791 295.42 236.731 298.912 259.87 298.439C278.679 298.058 297.661 295.006 316.287 289.366C336.623 283.198 357.131 273.569 377.239 260.745C419.562 233.772 457.327 194.465 486.449 147.074L487.488 148.512C458.161 196.235 420.148 235.808 377.559 262.953C357.337 275.848 336.712 285.533 316.259 291.736C297.533 297.404 278.454 300.473 259.548 300.857C236.31 301.334 212.276 297.828 186.072 290.142C173.647 286.486 161.136 282.076 148.883 277.035L146.826 276.195C136.395 271.927 125.609 267.514 114.187 267.113C106.996 266.847 100.416 268.183 94.0705 271.198C84.1612 275.908 72.8385 287.65 69.88 303.269C67.0087 318.423 72.6066 330.733 78.5863 342.044C91.8558 367.185 105.233 394.467 118.347 423.135C127.991 444.21 137.816 472.163 128.1 501.512C123.544 515.273 115.685 526.159 104.741 533.864C93.7299 541.615 82.289 544.253 74.6302 545.102C71.5914 545.438 68.4759 545.682 65.4639 545.917C49.5434 547.161 33.0822 548.448 18.2072 563.849C16.9554 565.145 15.7143 566.572 14.5192 568.095C-3.32149 590.806 -10.9916 633.638 -1.26297 656.23L-2.64389 657.841Z" fill="url(#paint15_linear)" fill-opacity="0.85"/>
<path opacity="0.7" d="M1.65538 657.221C-4.57275 644.808 -5.94195 626.513 -2.10071 607.025C1.73975 587.536 10.0549 570.588 20.713 560.525C36.6778 545.449 54.2276 545.63 71.1994 545.805C74.6246 545.841 78.1672 545.878 81.6012 545.781C112.097 544.922 129.674 524.312 135.954 505.312C145.67 475.919 133.718 447.061 123.883 427.907C109.367 399.64 94.0534 371.79 78.3693 345.129C75.2357 339.802 71.6957 333.516 69.3524 326.321C66.733 318.281 66.0858 310.52 67.3733 302.595C70.2543 284.85 82.3984 271.787 93.1559 266.711C112.947 257.372 131.139 266.412 148.731 275.155L150.568 276.067C214.96 307.974 273.511 317.061 329.565 303.846C397.631 287.799 461.685 236.281 505.303 162.503L506.431 163.974C462.48 238.316 397.976 290.219 329.46 306.37C273.153 319.646 214.372 310.533 149.759 278.516L147.92 277.604C130.551 268.972 112.591 260.048 93.3141 269.142C83.1406 273.944 71.6747 286.175 68.9949 302.678C66.3763 318.802 72.8561 331.539 79.7191 343.205C95.4207 369.897 110.75 397.78 125.284 426.079C146.315 467.032 142.282 491.326 137.42 506.036C127.404 536.338 101.848 547.756 81.2707 548.334C77.8165 548.432 74.2636 548.395 70.8284 548.36C54.1115 548.188 36.8251 548.011 21.3507 562.623C11.153 572.251 3.18804 588.515 -0.504072 607.246C-4.19541 625.977 -2.89519 643.531 3.0644 655.407L1.65538 657.221Z" fill="url(#paint16_linear)" fill-opacity="0.85"/>
</g>
</g>
<defs>
<linearGradient id="paint0_linear" x1="103.856" y1="248.198" x2="204.867" y2="296.109" gradientUnits="userSpaceOnUse">
<stop stop-color="#2A79FF" stop-opacity="0.15"/>
<stop offset="0.6919" stop-color="#0007BF"/>
</linearGradient>
<linearGradient id="paint1_linear" x1="116.583" y1="261.684" x2="198.612" y2="300.592" gradientUnits="userSpaceOnUse">
<stop stop-color="#2A79FF" stop-opacity="0.15"/>
<stop offset="0.6919" stop-color="#0007BF"/>
</linearGradient>
<linearGradient id="paint2_linear" x1="128.989" y1="274.87" x2="192.819" y2="305.146" gradientUnits="userSpaceOnUse">
<stop stop-color="#2A79FF" stop-opacity="0.15"/>
<stop offset="0.6919" stop-color="#0007BF"/>
</linearGradient>
<linearGradient id="paint3_linear" x1="140.938" y1="287.626" x2="187.211" y2="309.574" gradientUnits="userSpaceOnUse">
<stop stop-color="#2A79FF" stop-opacity="0.15"/>
<stop offset="0.6919" stop-color="#0007BF"/>
</linearGradient>
<linearGradient id="paint4_linear" x1="144.991" y1="293.098" x2="184.015" y2="311.608" gradientUnits="userSpaceOnUse">
<stop stop-color="#2A79FF" stop-opacity="0.15"/>
<stop offset="0.6919" stop-color="#0007BF"/>
</linearGradient>
<linearGradient id="paint5_linear" x1="141.582" y1="291.684" x2="200.715" y2="319.731" gradientUnits="userSpaceOnUse">
<stop stop-color="#2A79FF" stop-opacity="0.15"/>
<stop offset="0.6919" stop-color="#0007BF"/>
</linearGradient>
<linearGradient id="paint6_linear" x1="136.921" y1="289.102" x2="217.637" y2="327.386" gradientUnits="userSpaceOnUse">
<stop stop-color="#2A79FF" stop-opacity="0.15"/>
<stop offset="0.6919" stop-color="#0007BF"/>
</linearGradient>
<linearGradient id="paint7_linear" x1="131.82" y1="286.24" x2="234.588" y2="334.984" gradientUnits="userSpaceOnUse">
<stop stop-color="#2A79FF" stop-opacity="0.15"/>
<stop offset="0.6919" stop-color="#0007BF"/>
</linearGradient>
<linearGradient id="paint8_linear" x1="126.498" y1="283.191" x2="251.572" y2="342.516" gradientUnits="userSpaceOnUse">
<stop stop-color="#2A79FF" stop-opacity="0.15"/>
<stop offset="0.6919" stop-color="#0007BF"/>
</linearGradient>
<linearGradient id="paint9_linear" x1="121.037" y1="280.023" x2="268.576" y2="350.004" gradientUnits="userSpaceOnUse">
<stop stop-color="#2A79FF" stop-opacity="0.15"/>
<stop offset="0.6919" stop-color="#0007BF"/>
</linearGradient>
<linearGradient id="paint10_linear" x1="115.496" y1="276.783" x2="285.593" y2="357.463" gradientUnits="userSpaceOnUse">
<stop stop-color="#2A79FF" stop-opacity="0.15"/>
<stop offset="0.6919" stop-color="#0007BF"/>
</linearGradient>
<linearGradient id="paint11_linear" x1="109.898" y1="273.486" x2="302.622" y2="364.899" gradientUnits="userSpaceOnUse">
<stop stop-color="#2A79FF" stop-opacity="0.15"/>
<stop offset="0.6919" stop-color="#0007BF"/>
</linearGradient>
<linearGradient id="paint12_linear" x1="104.279" y1="270.166" x2="319.657" y2="372.324" gradientUnits="userSpaceOnUse">
<stop stop-color="#2A79FF" stop-opacity="0.15"/>
<stop offset="0.6919" stop-color="#0007BF"/>
</linearGradient>
<linearGradient id="paint13_linear" x1="98.5784" y1="266.763" x2="336.707" y2="379.711" gradientUnits="userSpaceOnUse">
<stop stop-color="#2A79FF" stop-opacity="0.15"/>
<stop offset="0.6919" stop-color="#0007BF"/>
</linearGradient>
<linearGradient id="paint14_linear" x1="92.9169" y1="263.391" x2="353.754" y2="387.111" gradientUnits="userSpaceOnUse">
<stop stop-color="#2A79FF" stop-opacity="0.15"/>
<stop offset="0.6919" stop-color="#0007BF"/>
</linearGradient>
<linearGradient id="paint15_linear" x1="87.1555" y1="259.925" x2="370.818" y2="394.471" gradientUnits="userSpaceOnUse">
<stop stop-color="#2A79FF" stop-opacity="0.15"/>
<stop offset="0.6919" stop-color="#0007BF"/>
</linearGradient>
<linearGradient id="paint16_linear" x1="87.0573" y1="256.576" x2="393.548" y2="401.95" gradientUnits="userSpaceOnUse">
<stop stop-color="#2A79FF" stop-opacity="0.15"/>
<stop offset="0.6919" stop-color="#0007BF"/>
</linearGradient>
<clipPath id="clip0">
<rect width="360" height="640" rx="5" fill="white"/>
</clipPath>
</defs>
</svg>
