<svg width="13" height="16" viewBox="0 0 13 16" fill="none" xmlns="http://www.w3.org/2000/svg">
<path fill-rule="evenodd" clip-rule="evenodd" d="M10.0636 1.81771V2.82422H11.4324H11.4335V2.82682C11.8659 2.82812 12.2578 3.03125 12.5407 3.36068C12.8215 3.6875 12.9966 4.13932 12.9978 4.63932H13V4.64193V14.1823V14.1836H12.9978C12.9966 14.6836 12.8215 15.138 12.5374 15.4674C12.2555 15.793 11.8659 15.9961 11.4347 15.9974V16H11.4324H4.50402H4.50289V15.9974C4.07169 15.9961 3.67867 15.793 3.3957 15.4635C3.11497 15.1367 2.93979 14.6849 2.93867 14.1849H2.93643V14.1823V12.0456H1.56759H1.56647V12.043C1.13527 12.0417 0.742248 11.8385 0.459273 11.5091C0.178544 11.1823 0.00336875 10.7305 0.00224583 10.2305H0V10.2279V1.81771V1.81641H0.00224583C0.00336875 1.3151 0.179667 0.860677 0.462641 0.532552C0.744493 0.207031 1.13415 0.00390625 1.56535 0.00260417V0H1.56759H8.49598H8.49711V0.00260417C8.92943 0.00390625 9.32133 0.207031 9.6043 0.536458C9.88503 0.863281 10.0602 1.3151 10.0613 1.8151H10.0636V1.81771ZM8.87553 2.82422V1.81771V1.8151H8.87778C8.87778 1.69661 8.83398 1.58724 8.76436 1.50651C8.69586 1.42708 8.60042 1.3763 8.49823 1.3763V1.37891H8.49711H1.56871H1.56647V1.3763C1.46428 1.3763 1.36996 1.42708 1.30034 1.50781C1.23184 1.58724 1.18805 1.69792 1.18805 1.81641H1.19029V1.81771V10.2279V10.2305H1.18805C1.18805 10.349 1.23184 10.4583 1.30146 10.5391C1.36996 10.6185 1.46541 10.6693 1.56759 10.6693V10.6667H1.56871H2.93755V4.64193V4.64063H2.93979C2.94092 4.13932 3.11722 3.6849 3.40019 3.35677C3.68204 3.03125 4.07169 2.82812 4.50289 2.82682V2.82422H4.50514H8.87553ZM11.8108 14.1823V4.64193V4.63932H11.8131C11.8131 4.52083 11.7693 4.41146 11.6997 4.33073C11.6312 4.2513 11.5357 4.20052 11.4335 4.20052V4.20312H11.4324H4.50402H4.50177V4.20052C4.39959 4.20052 4.30526 4.2513 4.23564 4.33203C4.16714 4.41146 4.12335 4.52214 4.12335 4.64063H4.12559V4.64193V14.1823V14.1849H4.12335C4.12335 14.3034 4.16714 14.4128 4.23676 14.4935C4.30526 14.5729 4.40071 14.6237 4.50289 14.6237V14.6211H4.50402H11.4324H11.4347V14.6237C11.5368 14.6237 11.6312 14.5729 11.7008 14.4922C11.7693 14.4128 11.8131 14.3021 11.8131 14.1836H11.8108V14.1823Z" fill="#971B20" fill-opacity="0.5"/>
</svg>
