<?xml version="1.0" encoding="utf-8"?>
<!-- Generator: Adobe Illustrator 22.0.1, SVG Export Plug-In . SVG Version: 6.00 Build 0)  -->
<svg version="1.1" id="Layer_2_1_" xmlns="http://www.w3.org/2000/svg" xmlns:xlink="http://www.w3.org/1999/xlink" x="0px" y="0px"
	 viewBox="0 0 117 121" style="enable-background:new 0 0 117 121;" xml:space="preserve">
<style type="text/css">
	.st0{fill:none;stroke:#FFFFFF;stroke-width:4;}
</style>
<g>
	<g>
		<g>
			<polyline class="st0" points="27.7,72.3 27.7,86.4 57.8,103.8 87.9,86.4 87.9,72.3 			"/>
			<line class="st0" x1="57.8" y1="101.3" x2="57.8" y2="73.1"/>
			<g>
				<polygon class="st0" points="89.4,55 57.8,73.2 71.9,81.4 103.5,63.2 				"/>
				<polygon class="st0" points="26.2,55 57.8,73.2 43.7,81.4 12.1,63.2 				"/>
			</g>
			<g>
				<polyline class="st0" points="43.7,28.6 12.1,46.8 26.2,55 47,43 				"/>
				<polyline class="st0" points="71.9,28.6 103.5,46.8 89.4,55 68.1,42.7 				"/>
			</g>
		</g>
	</g>
	<polyline class="st0" points="62.1,63.3 62.1,36.2 68.1,36.2 63,27.2 57.8,18.3 52.6,27.2 47.5,36.2 53.5,36.2 53.5,63.3 	"/>
</g>
</svg>
