<?xml version="1.0" encoding="utf-8"?>
<!-- Generator: Adobe Illustrator 22.0.1, SVG Export Plug-In . SVG Version: 6.00 Build 0)  -->
<svg version="1.1" id="Isolation_Mode" xmlns="http://www.w3.org/2000/svg" xmlns:xlink="http://www.w3.org/1999/xlink" x="0px"
	 y="0px" viewBox="0 0 68.3 66.5" style="enable-background:new 0 0 68.3 66.5;" xml:space="preserve">
<style type="text/css">
	.st0{fill:#939393;}
</style>
<path class="st0" d="M21.9,31c-2.4,0-4.8,0-7.3,0c-1.3,0-1.9-0.5-1.9-1.9c0-4.8,0-9.7,0-14.5c0-1.4,0.6-1.9,1.9-1.9
	c4.8,0,9.7,0,14.5,0c1.5,0,2,0.6,2,2.1c0,4.7,0,9.4,0,14.1c0,1.8-0.3,2.1-2.1,2.2C26.5,31.1,24.2,31,21.9,31
	C21.9,31,21.9,31,21.9,31z"/>
<path class="st0" d="M46.4,31c-2.3,0-4.5,0-6.8,0c-1.9,0-2.3-0.3-2.3-2.2c0-4.7,0-9.4,0-14.1c0-1.7,0.3-2,2-2c4.8,0,9.7,0,14.5,0
	c1.2,0,1.8,0.5,1.8,1.7c0,5,0,10,0,15c0,1.2-0.6,1.6-1.7,1.6C51.4,31,48.9,31,46.4,31C46.4,31,46.4,31,46.4,31z"/>
<path class="st0" d="M21.8,55.3c-2.3,0-4.5,0-6.8,0c-2.1,0-2.2-0.2-2.2-2.2c0-4.7,0-9.4,0-14.1c0-1.8,0.2-2,1.9-2.1
	c4.8,0,9.5,0,14.3,0c1.7,0,2,0.4,2,2c0,4.8,0,9.5,0,14.3c0,1.8-0.2,2-2,2C26.6,55.3,24.2,55.3,21.8,55.3
	C21.8,55.3,21.8,55.3,21.8,55.3z"/>
<path class="st0" d="M47.3,48.5c-1.1,1.3-1.7,2.3-2.6,3c-1.1,1-2,0.7-2.4-0.6c-1-3.6-2-7.3-2.9-10.9c-0.4-1.5,0.2-2.1,1.9-1.7
	c3.6,0.9,7.2,1.8,10.7,2.8c1.5,0.4,1.7,1.3,0.6,2.5c-0.7,0.8-1.6,1.4-2.5,2.3c1.4,1.5,2.7,2.7,3.9,4c0.4,0.4,0.8,0.7,1.1,1.2
	c0.6,0.9,0.7,1.9-0.2,2.7c-0.9,0.8-2,0.9-2.8,0.1C50.7,52.2,49.2,50.6,47.3,48.5z"/>
<path class="st0" d="M65.1,48.6c0,1.1,0,2.3,0,3.4c-0.1,1.5-0.8,2.3-2,2.3c-1.2,0-2.1-0.7-2.1-2.1c-0.1-2.3-0.1-4.7,0-7
	c0-1.4,0.9-2.2,2.1-2.2c1.2,0,1.9,0.8,2,2.3c0,0.6,0,1.2,0,1.8C65.1,47.5,65.1,48,65.1,48.6z"/>
<path class="st0" d="M7.3,48.7c0,1.2,0,2.4,0,3.6c-0.1,1.3-0.8,1.9-2,2c-1.2,0-2-0.7-2-1.8c-0.1-2.6-0.1-5.2,0-7.7
	c0.1-1.2,0.9-1.9,2.2-1.9C6.7,43,7.3,43.8,7.3,45C7.4,46.2,7.3,47.4,7.3,48.7z"/>
<path class="st0" d="M7.3,33.9c0,1.2,0.1,2.4,0,3.6c-0.1,1.3-1,2.2-2.1,2.1c-1.3-0.1-1.9-0.9-2-2.1c-0.1-2.4-0.1-4.8,0-7.3
	c0-1.2,0.8-1.9,2-2c1.2-0.1,2,0.7,2.1,2.2C7.4,31.6,7.3,32.8,7.3,33.9z"/>
<path class="st0" d="M65.1,33.9c0,1.2,0,2.4,0,3.6c0,1.2-0.7,2-1.9,2.1C62,39.8,61,38.9,61,37.6c-0.1-2.4-0.1-4.8,0-7.3
	c0-1.2,0.8-2,2.1-2c1.3,0,2,0.7,2,2C65.1,31.5,65.1,32.7,65.1,33.9z"/>
<path class="st0" d="M3.2,19.4c0-1.1-0.1-2.3,0-3.4c0.1-1.4,0.9-2.2,2.1-2.2c1.2,0,2,0.8,2,2.2c0.1,2.3,0,4.7,0,7
	c0,1.3-0.7,2-1.9,2.1c-1.2,0.1-2.1-0.8-2.2-2.1C3.1,21.8,3.2,20.6,3.2,19.4C3.2,19.4,3.2,19.4,3.2,19.4z"/>
<path class="st0" d="M65.1,19.4c0,1.2,0,2.4,0,3.6c0,1.3-0.8,2-2,2.1c-1.2,0.1-2.1-0.7-2.1-1.9c-0.1-2.5-0.1-5,0-7.5
	c0-1.2,0.8-1.9,2.1-1.9c1.3,0,1.9,0.8,2,2C65.2,17,65.1,18.2,65.1,19.4z"/>
<path class="st0" d="M48.8,64.9c-1.3,0-2.6,0-3.8,0c-1.2-0.1-1.8-0.7-1.8-1.9c0-1.1,0.5-1.9,1.7-2c2.6-0.1,5.3-0.1,7.9,0
	c1.2,0,1.7,0.9,1.6,2c0,1.1-0.6,1.9-1.8,1.9C51.3,64.9,50,64.9,48.8,64.9C48.8,64.9,48.8,64.9,48.8,64.9z"/>
<path class="st0" d="M19.6,7.1c-1.1,0-2.3,0-3.4,0c-1.5-0.1-2.2-0.7-2.3-1.9c-0.1-1.2,0.6-2,2.1-2.1c2.4-0.1,4.8-0.1,7.2,0
	c1.2,0,2,0.7,1.9,2c0,1.2-0.6,2-2,2C22,7.1,20.8,7.1,19.6,7.1C19.6,7.1,19.6,7.1,19.6,7.1z"/>
<path class="st0" d="M48.8,7.1c-1.3,0-2.6,0-3.8,0c-1.2,0-1.8-0.8-1.8-1.9c0-1.1,0.5-2,1.7-2c2.6-0.1,5.3-0.1,7.9-0.1
	c1.2,0,1.7,0.9,1.6,2c0,1.1-0.6,1.9-1.7,1.9C51.3,7.2,50.1,7.1,48.8,7.1C48.8,7.1,48.8,7.1,48.8,7.1z"/>
<path class="st0" d="M33.9,64.9c-1.1,0-2.3,0-3.4,0c-1.2,0-2-0.7-2-2c0-1.3,0.6-2,1.9-2c2.5,0,5-0.1,7.5,0c1.3,0,1.9,0.9,1.9,2.1
	c0,1.2-0.7,1.9-2,1.9C36.5,64.9,35.2,64.9,33.9,64.9z"/>
<path class="st0" d="M33.9,7.1c-1.1,0-2.3,0-3.4,0c-1.3,0-2-0.7-2-1.9c0-1.3,0.7-2,1.9-2c2.6,0,5.1-0.1,7.7,0c1.2,0,1.7,0.9,1.7,2
	c0,1.1-0.5,1.9-1.8,1.9C36.7,7.1,35.3,7.1,33.9,7.1C33.9,7.1,33.9,7.1,33.9,7.1z"/>
<path class="st0" d="M19.6,60.9c1.2,0,2.4,0,3.6,0c1.3,0,1.9,0.8,2,2c0,1.3-0.7,2-2,2c-2.4,0-4.8,0.1-7.2,0c-1.5,0-2.1-0.8-2.1-2.1
	c0.1-1.3,0.8-1.9,2.1-1.9C17.2,60.9,18.4,60.9,19.6,60.9C19.6,60.9,19.6,60.9,19.6,60.9z"/>
<path class="st0" d="M7.5,7.2C7.4,7.9,7.4,8.4,7.3,8.9c-0.3,1.1-1,1.7-2.2,1.6c-1-0.1-1.7-0.7-1.8-1.7c-0.1-1.3-0.1-2.6,0-3.8
	C3.4,3.5,4.5,3,5.7,3.1c1.6,0.1,3.6-0.8,4.7,1.2c0.7,1.2-0.1,2.5-1.4,2.8C8.6,7.2,8.1,7.1,7.5,7.2z"/>
<path class="st0" d="M60.7,7.3c-2.5-0.4-3.2-1-3-2.4c0.2-1.4,0.9-1.8,3.3-1.9c0.5,0,0.9,0,1.4,0c0.3,0,0.6,0,0.9,0.1
	c1.4,0.2,2,1.1,1.8,2.4c-0.2,1.7,0.9,3.8-1.4,4.8c-1.1,0.5-2,0-2.4-1C61,8.7,60.9,8,60.7,7.3z"/>
<path class="st0" d="M60.8,60.7c0.1-0.6,0-1.4,0.3-1.8c0.5-0.6,1.3-1.3,2.1-1.4c1-0.2,1.7,0.6,1.8,1.6c0.1,1.3,0.2,2.7,0,4.1
	c-0.1,1.3-1.2,1.8-2.3,1.6c-1.7-0.2-3.8,0.9-4.9-1.3c-0.5-1,0.1-2.2,1.2-2.6C59.5,60.9,60.2,60.8,60.8,60.7z"/>
<path class="st0" d="M7.5,60.8c0.7,0.1,1.1,0.1,1.6,0.2c1.1,0.2,1.5,0.9,1.5,1.9c0,1-0.5,1.8-1.5,1.9c-1.4,0.1-2.9,0.3-4.3,0
	c-2.4-0.6-1.4-2.8-1.6-4.4C3,59,3.5,57.9,4.9,57.6c1.1-0.3,1.9,0.3,2.3,1.3C7.4,59.4,7.4,60.1,7.5,60.8z"/>
</svg>
