<?xml version="1.0" encoding="utf-8"?>
<!-- Generator: Adobe Illustrator 22.0.1, SVG Export Plug-In . SVG Version: 6.00 Build 0)  -->
<svg version="1.1" id="Isolation_Mode" xmlns="http://www.w3.org/2000/svg" xmlns:xlink="http://www.w3.org/1999/xlink" x="0px"
	 y="0px" viewBox="0 0 194.7 193.3" style="enable-background:new 0 0 194.7 193.3;" xml:space="preserve">
<style type="text/css">
	.st0{fill:black;}
</style>
<path class="st0" d="M62.7,89.4c-6.7,0-13.5,0-20.2,0c-3.5,0-5.4-1.3-5.4-5.2c0.1-13.5,0.1-26.9,0-40.4c0-3.8,1.5-5.4,5.2-5.4
	c13.5,0,26.9,0.1,40.4,0c4.1,0,5.5,1.8,5.5,5.8c-0.1,13,0,26.1-0.1,39.1c0,5-0.9,5.9-5.9,6C75.7,89.5,69.2,89.4,62.7,89.4
	C62.7,89.4,62.7,89.4,62.7,89.4z"/>
<path class="st0" d="M131,89.4c-6.3,0-12.6,0.1-18.9,0c-5.4-0.1-6.4-1-6.4-6.1c-0.1-13.1-0.1-26.1,0-39.2c0-4.8,0.7-5.5,5.5-5.6
	c13.5-0.1,27,0,40.4,0c3.4,0,5,1.4,5,4.9c-0.1,13.9-0.1,27.8-0.1,41.7c0,3.3-1.6,4.4-4.7,4.4C144.9,89.3,137.9,89.4,131,89.4
	C131,89.4,131,89.4,131,89.4z"/>
<path class="st0" d="M62.4,156.8c-6.3,0-12.6,0-18.9,0c-5.8-0.1-6.2-0.4-6.2-6c0-13.1,0-26.1,0-39.2c0-4.9,0.6-5.7,5.3-5.7
	c13.3-0.1,26.5-0.1,39.8,0c4.6,0,5.6,1,5.7,5.5c0.1,13.3,0.1,26.5,0,39.8c0,4.9-0.6,5.5-5.5,5.5C75.9,156.9,69.1,156.8,62.4,156.8
	C62.4,156.8,62.4,156.8,62.4,156.8z"/>
<path class="st0" d="M133.5,138c-3.1,3.6-4.9,6.3-7.2,8.4c-3,2.7-5.5,2-6.6-1.8c-2.8-10.1-5.5-20.2-8-30.4c-1-4.3,0.7-5.9,5.2-4.8
	c10,2.5,19.9,5.1,29.8,7.9c4.1,1.2,4.7,3.7,1.7,7c-2,2.2-4.3,4-7,6.3c4,4.1,7.5,7.6,10.9,11.2c1,1.1,2.2,2,3,3.2
	c1.5,2.5,1.9,5.2-0.5,7.5c-2.5,2.3-5.4,2.6-7.9,0.2C142.7,148.4,138.7,143.8,133.5,138z"/>
<path class="st0" d="M182.9,138.2c0,3.2,0.1,6.3,0,9.5c-0.2,4.2-2.2,6.3-5.5,6.4c-3.3,0.1-5.8-2-6-6c-0.3-6.5-0.2-13.1,0-19.6
	c0.1-3.8,2.6-6.1,5.9-6.1c3.3,0,5.3,2.2,5.6,6.3c0.1,1.7,0,3.4,0,5.1C182.9,135.2,182.9,136.7,182.9,138.2z"/>
<path class="st0" d="M22.3,138.4c0,3.4,0.1,6.7,0,10.1c-0.2,3.5-2.3,5.4-5.7,5.5c-3.3,0.1-5.4-1.9-5.6-4.9
	c-0.3-7.1-0.4-14.3-0.1-21.5c0.1-3.3,2.5-5.4,6-5.2c3.5,0.2,5.2,2.5,5.3,5.9C22.4,131.7,22.3,135,22.3,138.4z"/>
<path class="st0" d="M22.3,97.4c0,3.4,0.2,6.7,0,10.1c-0.2,3.7-2.7,6.2-5.9,6c-3.5-0.2-5.4-2.5-5.5-5.8c-0.2-6.7-0.2-13.5,0-20.2
	c0.1-3.4,2.2-5.4,5.6-5.6c3.4-0.2,5.6,2.1,5.8,6C22.5,91.1,22.3,94.3,22.3,97.4z"/>
<path class="st0" d="M182.9,97.5c0,3.4,0.1,6.7,0,10.1c-0.1,3.4-1.9,5.5-5.4,5.9c-3.2,0.3-5.9-2.2-6-5.9c-0.2-6.7-0.2-13.5,0-20.2
	c0.1-3.4,2.3-5.5,5.7-5.5c3.5,0,5.5,2,5.6,5.5C183,90.8,182.9,94.1,182.9,97.5z"/>
<path class="st0" d="M10.8,56.9c0-3.2-0.2-6.3,0-9.5c0.2-3.9,2.5-6.2,5.8-6.1c3.4,0,5.6,2.1,5.7,6.2c0.2,6.5,0.1,13,0,19.5
	c0,3.5-2,5.5-5.4,5.8c-3.2,0.3-5.8-2.1-6-5.9C10.6,63.7,10.8,60.3,10.8,56.9C10.8,56.9,10.8,56.9,10.8,56.9z"/>
<path class="st0" d="M182.9,57.1c0,3.4,0.1,6.7,0,10.1c-0.1,3.5-2.2,5.6-5.5,5.7c-3.4,0.1-5.7-1.9-5.9-5.3
	c-0.3-6.9-0.3-13.9-0.1-20.8c0.1-3.4,2.4-5.4,5.8-5.4c3.5,0,5.4,2.2,5.6,5.6C183,50.3,182.9,53.7,182.9,57.1z"/>
<path class="st0" d="M137.5,183.5c-3.6,0-7.1,0.1-10.7,0c-3.2-0.2-4.9-2.1-5-5.3c-0.1-3.2,1.4-5.4,4.7-5.5
	c7.3-0.2,14.6-0.3,21.9-0.1c3.3,0.1,4.6,2.5,4.6,5.6c-0.1,3.2-1.6,5.2-4.9,5.3C144.6,183.6,141,183.5,137.5,183.5
	C137.5,183.5,137.5,183.5,137.5,183.5z"/>
<path class="st0" d="M56.4,22.9c-3.1,0-6.3,0.1-9.4,0c-4.2-0.2-6.2-1.9-6.4-5.3c-0.2-3.4,1.8-5.7,5.9-5.8c6.7-0.2,13.4-0.2,20.1,0
	c3.5,0.1,5.5,2,5.3,5.6c-0.1,3.4-1.8,5.5-5.4,5.5C63.1,22.9,59.7,22.9,56.4,22.9C56.4,22.9,56.4,22.9,56.4,22.9z"/>
<path class="st0" d="M137.5,22.8c-3.6,0-7.1,0.1-10.7,0c-3.2-0.1-5-2.1-5-5.3c-0.1-3.1,1.4-5.4,4.7-5.5c7.3-0.2,14.6-0.3,21.9-0.1
	c3.2,0.1,4.6,2.5,4.6,5.6c-0.1,3.2-1.6,5.2-4.9,5.4C144.6,23,141.1,22.9,137.5,22.8C137.5,22.9,137.5,22.9,137.5,22.8z"/>
<path class="st0" d="M96.3,183.6c-3.1,0-6.3,0.1-9.4,0c-3.4-0.1-5.5-1.9-5.5-5.5c0-3.5,1.8-5.5,5.3-5.6c6.9-0.1,13.8-0.2,20.7-0.1
	c3.6,0,5.3,2.5,5.2,5.8c-0.1,3.4-2,5.4-5.6,5.4C103.4,183.6,99.8,183.6,96.3,183.6z"/>
<path class="st0" d="M96.3,22.9c-3.1,0-6.3,0-9.4,0c-3.6,0-5.5-1.9-5.6-5.4c-0.1-3.5,1.8-5.6,5.3-5.7c7.1-0.1,14.2-0.2,21.3,0.1
	c3.3,0.1,4.7,2.5,4.6,5.6c-0.1,3.1-1.5,5.3-4.9,5.3C103.8,22.9,100.1,22.9,96.3,22.9C96.3,22.9,96.3,22.9,96.3,22.9z"/>
<path class="st0" d="M56.5,172.4c3.4,0,6.7,0,10.1,0c3.6,0,5.4,2.1,5.4,5.5c0,3.5-1.9,5.5-5.4,5.5c-6.7,0.1-13.4,0.2-20.1,0
	c-4.1-0.1-6-2.3-5.7-5.9c0.2-3.5,2.1-5.3,5.7-5.2C49.8,172.4,53.1,172.4,56.5,172.4C56.5,172.4,56.5,172.4,56.5,172.4z"/>
<path class="st0" d="M22.7,23.1c-0.2,2-0.2,3.4-0.6,4.8c-0.9,2.9-2.9,4.6-6.1,4.3c-2.8-0.3-4.8-2-5-4.8c-0.3-3.5-0.4-7.2,0-10.7
	c0.4-3.9,3.4-5.1,6.8-4.9c4.6,0.3,10-2.2,13.1,3.2c1.8,3.2-0.2,6.8-3.9,7.7C25.8,23,24.6,23,22.7,23.1z"/>
<path class="st0" d="M170.8,23.4c-6.9-1.1-8.9-2.7-8.4-6.6c0.4-3.9,2.6-5.1,9.2-5.1c1.3,0,2.5,0,3.8,0c0.8,0,1.7,0.1,2.5,0.2
	c3.8,0.7,5.5,3.1,5,6.7c-0.6,4.6,2.6,10.5-3.9,13.3c-2.9,1.3-5.4-0.1-6.8-2.9C171.4,27.4,171.3,25.5,170.8,23.4z"/>
<path class="st0" d="M171,171.9c0.3-1.7-0.1-3.8,0.9-4.9c1.5-1.7,3.7-3.5,5.8-3.8c2.7-0.4,4.8,1.6,5.1,4.5c0.3,3.8,0.4,7.6,0,11.3
	c-0.4,3.5-3.3,5-6.5,4.5c-4.6-0.7-10.5,2.6-13.5-3.6c-1.4-2.8,0.2-6.1,3.2-7.1C167.4,172.3,169.2,172.2,171,171.9z"/>
<path class="st0" d="M22.8,172.2c1.9,0.2,3.1,0.2,4.3,0.4c3,0.5,4.3,2.5,4.2,5.3c0,2.8-1.3,5.1-4.2,5.3c-4,0.3-8.2,0.9-11.9-0.1
	c-6.6-1.7-3.9-7.8-4.4-12.2c-0.5-3.7,0.8-6.8,4.7-7.8c3-0.8,5.4,0.9,6.4,3.7C22.5,168.4,22.5,170.1,22.8,172.2z"/>
</svg>
