<svg width="90" height="90" viewBox="0 0 90 90" fill="none" xmlns="http://www.w3.org/2000/svg">
<path d="M44.421 0.122665C44.3764 0.207043 44.4954 1.77501 44.7483 4.50314C44.964 6.84454 45.1425 8.84142 45.15 8.94688C45.15 9.1297 45.15 9.1297 44.4657 9.17188C41.0442 9.36173 40.0624 9.45313 37.9351 9.77657C30.1177 10.9859 23.2599 13.9109 17.3318 18.5656C16.1119 19.5289 13.3301 22.1586 12.3186 23.3117C6.41276 30.0406 2.93177 38.0492 2.15078 46.7258C2.03177 48.0125 2.03177 51.1695 2.15078 52.4211C2.26979 53.743 2.53012 55.4234 2.62681 55.5359C2.67144 55.5852 2.7607 55.6203 2.83508 55.6063C2.90202 55.5922 4.52351 54.3406 6.42764 52.8219C8.33177 51.3102 9.92351 50.0656 9.96814 50.0656C10.0053 50.0656 12.0582 50.6844 14.5351 51.4367C17.0045 52.1891 19.0797 52.8078 19.1392 52.8078C19.3549 52.8078 19.407 52.5898 19.3252 51.9641C19.221 51.1273 19.221 48.2305 19.3326 47.218C20.1582 39.6242 24.1152 33.2328 30.4227 29.2883C34.3202 26.8484 39.1177 25.4 44.3839 25.0625L45.15 25.0133L45.1128 25.3227C45.0905 25.4914 44.8524 27.8469 44.5921 30.5539C44.25 34.0977 44.1384 35.4969 44.1979 35.5602C44.3541 35.7359 44.5252 35.6445 45.3508 34.9273C47.9243 32.7055 51.145 28.7188 53.7706 24.507C55.221 22.1867 57.1996 18.2 57.1996 17.5953C57.1996 17.518 57.0954 17.1313 56.969 16.7305C55.8905 13.2781 52.6326 8.29298 48.4524 3.65939C47.4706 2.56954 44.7706 0.00313568 44.6144 0.00313568C44.54 0.00313568 44.4582 0.0593834 44.421 0.122665Z" fill="#004FFF" fill-opacity="0.5"/>
<path d="M61.433 12.4803C61.3661 12.5576 61.4776 13.4225 62.0206 16.7482C62.3925 19.0404 62.7123 20.974 62.7272 21.0373C62.7495 21.1217 61.6859 22.0287 59.0826 24.1521C57.0594 25.7975 55.4082 27.1896 55.4082 27.2389C55.4082 27.3865 55.6239 27.5271 56.509 27.942C60.8677 30.0021 64.8247 33.4615 67.3611 37.4412C69.1611 40.2607 70.247 43.249 70.7454 46.7576C70.8718 47.6506 70.8718 50.9272 70.7454 51.8904C70.2991 55.2725 69.3917 58.1201 67.7479 61.2982C67.257 62.2404 67.0561 62.5709 66.9892 62.5217C66.1561 61.8959 58.1231 56.3201 58.0487 56.3201C57.7289 56.3201 57.7437 56.6365 58.1231 58.2256C59.4247 63.5834 63.828 72.1615 67.1379 75.7756C67.5842 76.2608 67.6958 76.31 69.2057 76.6053C73.0214 77.3647 79.1057 77.2522 84.8999 76.317C86.8636 76.0006 89.7569 75.3467 89.9355 75.1779C90.1512 74.974 89.8611 74.8123 85.6512 72.8506L81.3892 70.8608L81.7908 70.1787C82.4082 69.1592 83.695 66.7053 84.1859 65.6154C88.8346 55.3498 89.0355 44.7186 84.7809 34.7271C80.6454 24.9959 72.2404 16.6568 62.6975 12.7967C62.1247 12.5646 61.6264 12.3748 61.5892 12.3748C61.552 12.3748 61.4851 12.424 61.433 12.4803Z" fill="#004FFF" fill-opacity="0.5"/>
<path d="M15.4013 55.17C12.8129 55.3318 11.4369 55.4794 10.1947 55.7325C9.65917 55.845 9.62198 55.8661 9.16826 56.3161C6.93685 58.5169 4.55669 62.4333 2.51867 67.2567C1.58148 69.4646 0.703798 72.0521 0.190575 74.1263C0.0195008 74.8224 -0.00281319 74.97 0.079005 75.0685C0.138509 75.1247 0.235203 75.1599 0.309583 75.1458C0.376526 75.1247 2.11702 73.9786 4.17735 72.5864C6.23768 71.1942 7.9633 70.0341 8.01537 70.013C8.07487 69.9778 8.35752 70.3294 8.82611 70.9974C13.4079 77.6067 19.0831 82.5216 25.8889 85.7841C35.1864 90.2349 46.1649 91.1981 56.6674 88.4841C62.2385 87.0427 67.512 84.5255 71.5063 81.3966C71.9972 81.0099 72.1013 80.813 71.9154 80.6724C71.8187 80.595 63.4955 77.8388 63.3765 77.8388C63.2873 77.8388 63.3616 78.12 62.2236 73.3388C61.6732 70.9974 61.1823 69.0146 61.1451 68.9232C61.1079 68.8388 61.0187 68.7685 60.9592 68.7685C60.8922 68.7685 60.5129 68.9864 60.1187 69.2536C56.4963 71.7005 52.2344 73.2614 47.6079 73.838C46.693 73.9505 44.3798 74.0138 43.2195 73.9575C35.7145 73.5849 28.9162 69.9567 23.8806 63.6357C22.9658 62.4896 22.5939 61.9411 22.6608 61.8778C22.698 61.8427 24.9517 60.8232 27.674 59.6068C32.4864 57.4552 32.6203 57.3919 32.6203 57.2021C32.6203 57.0263 32.5757 56.9911 32.2112 56.8716C29.9426 56.1333 26.4393 55.5638 22.2815 55.2685C21.2476 55.1911 16.1823 55.1208 15.4013 55.17Z" fill="#004FFF" fill-opacity="0.5"/>
</svg>
