<?xml version="1.0" encoding="utf-8"?>
<!-- Generator: Adobe Illustrator 22.0.1, SVG Export Plug-In . SVG Version: 6.00 Build 0)  -->
<svg version="1.1" id="Layer_1" xmlns="http://www.w3.org/2000/svg" xmlns:xlink="http://www.w3.org/1999/xlink" x="0px" y="0px"
	 viewBox="0 0 87 107.5" style="enable-background:new 0 0 87 107.5;" xml:space="preserve">
<style type="text/css">
	.st0{fill:none;stroke:black;stroke-width:4;}
	.st1{fill:none;stroke:black;stroke-width:4;stroke-dasharray:3.8538,3.8538;}
</style>
<g id="Icons">
	<g>
		<g>
			<g>
				<path class="st0" d="M53.2,77.8V99c0,1.7-1.4,3.1-3.1,3.1H7.3c-1.7,0-3.1-1.4-3.1-3.1V8.6c0-1.7,1.4-3.1,3.1-3.1h42.9
					c1.7,0,3.1,1.4,3.1,3.1v12"/>
				<line class="st0" x1="47.9" y1="87.8" x2="9.5" y2="87.8"/>
				<line class="st0" x1="9.5" y1="19.1" x2="47.9" y2="19.1"/>
				<g>
					<line class="st0" x1="20.5" y1="12.4" x2="36.9" y2="12.4"/>
				</g>
				<line class="st0" x1="26.7" y1="94.1" x2="30.7" y2="94.1"/>
			</g>
			<g>
				<g>
					<g>
						<g>
							<g>
								<path class="st0" d="M52.9,18.7c-16.3,0-29.5,13.2-29.5,29.5c0,7.3,2.6,13.9,7,19.1l-3,9.1l8.6-4c4.8,3.3,10.6,5.3,16.9,5.3
									c16.3,0,29.5-13.2,29.5-29.5"/>
							</g>
						</g>
					</g>
				</g>
				<g>
					<g>
						<path class="st0" d="M82.5,48.3c0-0.7,0-1.3-0.1-2"/>
						<path class="st1" d="M81.9,42.5c-2.5-12.3-12.5-21.8-25-23.5"/>
						<path class="st0" d="M54.9,18.8c-0.7,0-1.3-0.1-2-0.1"/>
					</g>
				</g>
			</g>
		</g>
		<g>
			<path class="st0" d="M57.7,41.1V40c0-2-1.6-3.6-3.6-3.6h-2.9c-2,0-3.6,1.6-3.6,3.6v2.4c0,1.1,0.9,2.1,2,2.8l5.4,2.1"/>
			<path class="st0" d="M47.6,51.6v1.1c0,2,1.6,3.6,3.6,3.6h2.9c2,0,3.6-1.6,3.6-3.6v-2.4c0-1.1-0.9-2.1-2.1-2.8l-5.2-2"/>
			<line class="st0" x1="52.9" y1="31.5" x2="52.9" y2="36.8"/>
			<line class="st0" x1="52.9" y1="55.4" x2="52.9" y2="60.8"/>
		</g>
	</g>
</g>
</svg>
