<svg width="36" height="37" viewBox="0 0 36 37" fill="none" xmlns="http://www.w3.org/2000/svg">
<path d="M2.68555 27.7787V4.32909C2.68555 3.38809 3.31 2.59766 4.1218 2.59766H31.6916C32.4722 2.59766 33.1279 3.35045 33.1279 4.32909V10.8784V16.7502" stroke="black"/>
<path d="M5.05859 6.70057V5.49609H29.2251V6.70057" stroke="black"/>
<path d="M16.8919 31.6553H31.6604C32.4409 31.6553 33.0966 30.9025 33.0966 29.9239V23.751V12.8354V10.2383C33.0966 9.29726 32.4722 8.50682 31.6604 8.50682H4.09055C3.30998 8.50682 2.6543 7.75403 2.6543 6.77539V29.8486C2.6543 30.7896 3.27875 31.5801 4.09055 31.5801H5.74536" stroke="black"/>
<path d="M30.6616 28.2305H16.5801" stroke="black" stroke-dasharray="4 4"/>
<path d="M4.62109 11.9316H31.2854" stroke="black" stroke-dasharray="4 4"/>
<path d="M33.4403 17.5039H28.1948V23.1875H33.4403V17.5039Z" stroke="black"/>
<path d="M30.0366 20.3262H31.348" stroke="black"/>
<path d="M15.3929 29.321C15.3929 32.5581 13.2073 35.1929 10.5221 35.1929C7.83697 35.1929 5.65137 32.5581 5.65137 29.321C5.65137 26.084 7.83697 23.4492 10.5221 23.4492C13.2385 23.4492 15.3929 26.084 15.3929 29.321Z" stroke="black"/>
<path d="M11.6155 26.5742C12.4585 27.0635 13.0517 28.1175 13.0517 29.2843C13.0517 30.9404 11.9277 32.2955 10.5539 32.2955C10.2104 32.2955 9.89819 32.2202 9.61719 32.0696C10.0543 31.8814 10.429 31.6556 10.7412 31.3921C10.9598 31.2039 11.1471 31.0157 11.272 30.8275C12.4272 29.209 9.55474 28.3433 11.6155 26.5742Z" fill="black"/>
<path d="M10.5535 26.3105C10.8969 26.3105 11.2091 26.3858 11.4902 26.5364C11.053 26.7246 10.6784 26.9504 10.3661 27.2139C10.1476 27.4021 9.96023 27.5903 9.83534 27.7785C8.68009 29.4723 11.5526 30.338 9.46067 32.0694C8.61765 31.5801 8.02441 30.5262 8.02441 29.3594C8.02441 27.6656 9.14844 26.3105 10.5535 26.3105Z" fill="black"/>
</svg>
