<svg width="36" height="37" viewBox="0 0 36 37" fill="none" xmlns="http://www.w3.org/2000/svg">
<g clip-path="url(#clip0_2608:298)">
<path d="M18.3676 28.8933C24.1803 28.8933 28.8924 24.1812 28.8924 18.3685C28.8924 12.5559 24.1803 7.84375 18.3676 7.84375C12.5549 7.84375 7.84277 12.5559 7.84277 18.3685C7.84277 24.1812 12.5549 28.8933 18.3676 28.8933Z" stroke="white" stroke-dasharray="4.03 4.03"/>
<path d="M18.3677 11.377L24.3925 14.8356L18.3305 18.3315L12.2686 14.8728L18.3677 11.377Z" stroke="white" stroke-linecap="round" stroke-linejoin="round"/>
<path d="M24.3921 14.8359L24.4664 21.8649L18.4045 25.3607L18.3301 18.3318L24.3921 14.8359Z" stroke="white" stroke-linecap="round" stroke-linejoin="round"/>
<path d="M18.3305 18.3317L18.4049 25.3606L12.3429 21.902L12.2686 14.873L18.3305 18.3317Z" stroke="white" stroke-linecap="round" stroke-linejoin="round"/>
<path d="M21.343 3.75207L18.5909 1L15.8389 3.75207" stroke="white"/>
<path d="M18.5908 1.55859V6.17016" stroke="white"/>
<path d="M10.1119 5.94727H6.24414V9.81503" stroke="white"/>
<path d="M6.65332 6.31836L9.92605 9.59109" stroke="white"/>
<path d="M3.75206 15.3926L1 18.1446L3.75206 20.8967" stroke="white"/>
<path d="M1.55762 18.1445H6.20638" stroke="white"/>
<path d="M5.94629 26.623V30.4908H9.81406" stroke="white"/>
<path d="M6.31836 30.1185L9.59109 26.8086" stroke="white"/>
<path d="M26.624 30.7896H30.4918V26.9219" stroke="white"/>
<path d="M30.1199 30.4192L26.8472 27.1465" stroke="white"/>
<path d="M32.9834 21.342L35.7355 18.59L32.9834 15.8379" stroke="white"/>
<path d="M35.1775 18.5898H30.5659" stroke="white"/>
<path d="M15.4297 32.9844L18.1446 35.7364L20.8966 32.9844" stroke="white"/>
<path d="M18.1445 35.178V30.5664" stroke="white"/>
<path d="M30.7892 10.1119V6.24414H26.9214" stroke="white"/>
<path d="M30.4173 6.61523L27.1445 9.92515" stroke="white"/>
</g>
<defs>
<clipPath id="clip0_2608:298">
<rect width="36" height="37" fill="white"/>
</clipPath>
</defs>
</svg>
