<?xml version="1.0" encoding="utf-8"?>
<!-- Generator: Adobe Illustrator 22.0.1, SVG Export Plug-In . SVG Version: 6.00 Build 0)  -->
<svg version="1.1" id="Layer_1" xmlns="http://www.w3.org/2000/svg" xmlns:xlink="http://www.w3.org/1999/xlink" x="0px" y="0px"
	 viewBox="0 0 397 394" style="enable-background:new 0 0 397 394;" xml:space="preserve">
<style type="text/css">
	.st0{fill:#10FF10;}
</style>
<g>
	<g>
		<g>
			<path class="st0" d="M256,114.9l0.3-0.2L148.7,222.3l-0.1-67.7c0-3.3-1.3-6.5-3.7-8.8c-2.4-2.4-5.5-3.7-8.8-3.7h-10.5
				c-3.3,0-6.4,1.3-8.8,3.6c-2.4,2.4-3.7,5.5-3.7,8.8l0,116c0,3.3,1.3,6.4,3.7,8.8c2.4,2.4,5.5,3.7,8.8,3.7h116
				c3.3,0,6.4-1.3,8.8-3.7c2.4-2.4,3.6-5.5,3.6-8.8V260c0-3.3-1.3-6.4-3.6-8.8c-2.4-2.4-5.4-3.5-8.7-3.5l-68.3,0.1l107.9-107.9
				c4.8-4.8,4.7-13.1-0.1-17.9l-7.4-7.4C268.9,109.7,260.8,110,256,114.9z"/>
		</g>
	</g>
	<path class="st0" d="M199,389.7c106.4,0,192.7-86.3,192.7-192.7S305.4,4.3,199,4.3S6.3,90.6,6.3,197S92.6,389.7,199,389.7z
		 M199,38.3c87.6,0,158.7,71,158.7,158.7S286.6,355.7,199,355.7S40.3,284.7,40.3,197S111.4,38.3,199,38.3z"/>
</g>
</svg>
