<?xml version="1.0" encoding="utf-8"?>
<!-- Generator: Adobe Illustrator 22.0.1, SVG Export Plug-In . SVG Version: 6.00 Build 0)  -->
<svg version="1.1" id="Layer_1" xmlns="http://www.w3.org/2000/svg" xmlns:xlink="http://www.w3.org/1999/xlink" x="0px" y="0px"
	 viewBox="0 0 397 394" style="enable-background:new 0 0 397 394;" xml:space="preserve">
<style type="text/css">
	.st0{fill:red;}
</style>
<g>
	<g>
		<g>
			<path class="st0" d="M142,279.1l-0.3,0.2l107.6-107.6l0.1,67.7c0,3.3,1.3,6.5,3.7,8.8c2.4,2.4,5.5,3.7,8.8,3.7h10.5
				c3.3,0,6.4-1.3,8.8-3.6c2.4-2.4,3.7-5.5,3.7-8.8v-116c0-3.3-1.3-6.4-3.7-8.8c-2.4-2.4-5.5-3.7-8.8-3.7h-116
				c-3.3,0-6.4,1.3-8.8,3.7c-2.4,2.4-3.6,5.5-3.6,8.8V134c0,3.3,1.3,6.4,3.6,8.8c2.4,2.4,5.4,3.5,8.7,3.5l68.3-0.1L116.7,254.1
				c-4.8,4.8-4.7,13.1,0.1,17.9l7.4,7.4C129.1,284.3,137.2,284,142,279.1z"/>
		</g>
	</g>
	<path class="st0" d="M199,4.3C92.6,4.3,6.3,90.6,6.3,197S92.6,389.7,199,389.7S391.7,303.4,391.7,197S305.4,4.3,199,4.3z
		 M199,355.7c-87.6,0-158.7-71-158.7-158.7S111.4,38.3,199,38.3s158.7,71,158.7,158.7S286.6,355.7,199,355.7z"/>
</g>
</svg>
