<?xml version="1.0" encoding="utf-8"?>
<!-- Generator: Adobe Illustrator 22.0.1, SVG Export Plug-In . SVG Version: 6.00 Build 0)  -->
<svg version="1.1" id="Layer_1" xmlns="http://www.w3.org/2000/svg" xmlns:xlink="http://www.w3.org/1999/xlink" x="0px" y="0px"
	 viewBox="0 0 401 401" style="enable-background:new 0 0 401 401;" xml:space="preserve">
<style type="text/css">
	.st0{fill:#A2A5B7;}
	.st1{fill:#F44336;}
</style>
<g>
	<path class="st0" d="M201.7,9C95.3,9,9,95.3,9,201.7s86.3,192.7,192.7,192.7s192.7-86.3,192.7-192.7S308.1,9,201.7,9z M201.7,360.4
		c-87.6,0-158.7-71-158.7-158.7s71-158.7,158.7-158.7s158.7,71,158.7,158.7S289.3,360.4,201.7,360.4z"/>
	<g>
		<path class="st0" d="M316.5,257.7h-32.8c-4.5,0-8.2-3.7-8.2-8.2s3.7-8.2,8.2-8.2h32.8c4.5,0,8.2,3.7,8.2,8.2
			S321,257.7,316.5,257.7z"/>
		<path class="st0" d="M250.9,257.7h-32.8c-4.5,0-8.2-3.7-8.2-8.2s3.7-8.2,8.2-8.2h32.8c4.5,0,8.2,3.7,8.2,8.2
			S255.4,257.7,250.9,257.7z"/>
		<path class="st0" d="M185.3,257.7h-32.8c-4.5,0-8.2-3.7-8.2-8.2s3.7-8.2,8.2-8.2h32.8c4.5,0,8.2,3.7,8.2,8.2
			S189.8,257.7,185.3,257.7z"/>
		<path class="st0" d="M119.7,257.7H86.9c-4.5,0-8.2-3.7-8.2-8.2s3.7-8.2,8.2-8.2h32.8c4.5,0,8.2,3.7,8.2,8.2
			S124.2,257.7,119.7,257.7z"/>
	</g>
	<path class="st1" d="M174.4,203.1c-2.8,0-5.6-1.1-7.7-3.2c-4.3-4.3-4.3-11.2,0-15.5l60.1-60.1c4.3-4.3,11.2-4.3,15.5,0
		s4.3,11.2,0,15.5l-60.1,60.1C180,202,177.2,203.1,174.4,203.1L174.4,203.1z"/>
	<path class="st1" d="M234.5,203.1c-2.8,0-5.6-1.1-7.7-3.2l-60.1-60.1c-4.3-4.3-4.3-11.2,0-15.5c4.3-4.3,11.2-4.3,15.5,0l60.1,60.1
		c4.3,4.3,4.3,11.2,0,15.5C240.1,202,237.3,203.1,234.5,203.1L234.5,203.1z"/>
</g>
</svg>
