<svg width="43" height="41" viewBox="0 0 43 41" fill="none" xmlns="http://www.w3.org/2000/svg">
<path d="M34.0413 11.9583H32.2497V10.25C32.2497 8.89077 31.6834 7.5872 30.6754 6.62608C29.6674 5.66495 28.3002 5.125 26.8747 5.125H8.95801C7.53247 5.125 6.16532 5.66495 5.15731 6.62608C4.1493 7.5872 3.58301 8.89077 3.58301 10.25V30.75C3.58301 32.1092 4.1493 33.4128 5.15731 34.3739C6.16532 35.335 7.53247 35.875 8.95801 35.875H34.0413C35.4669 35.875 36.834 35.335 37.842 34.3739C38.85 33.4128 39.4163 32.1092 39.4163 30.75V17.0833C39.4163 15.7241 38.85 14.4205 37.842 13.4594C36.834 12.4983 35.4669 11.9583 34.0413 11.9583ZM8.95801 8.54167H26.8747C27.3499 8.54167 27.8056 8.72165 28.1416 9.04203C28.4776 9.3624 28.6663 9.79692 28.6663 10.25V11.9583H8.95801C8.48283 11.9583 8.02711 11.7783 7.69111 11.458C7.35511 11.1376 7.16634 10.7031 7.16634 10.25C7.16634 9.79692 7.35511 9.3624 7.69111 9.04203C8.02711 8.72165 8.48283 8.54167 8.95801 8.54167ZM35.833 25.625H34.0413C33.5662 25.625 33.1104 25.445 32.7744 25.1246C32.4384 24.8043 32.2497 24.3697 32.2497 23.9167C32.2497 23.4636 32.4384 23.0291 32.7744 22.7087C33.1104 22.3883 33.5662 22.2083 34.0413 22.2083H35.833V25.625ZM35.833 18.7917H34.0413C32.6158 18.7917 31.2486 19.3316 30.2406 20.2927C29.2326 21.2539 28.6663 22.5574 28.6663 23.9167C28.6663 25.2759 29.2326 26.5795 30.2406 27.5406C31.2486 28.5017 32.6158 29.0417 34.0413 29.0417H35.833V30.75C35.833 31.2031 35.6442 31.6376 35.3082 31.958C34.9722 32.2784 34.5165 32.4583 34.0413 32.4583H8.95801C8.48283 32.4583 8.02711 32.2784 7.69111 31.958C7.35511 31.6376 7.16634 31.2031 7.16634 30.75V15.0846C7.74195 15.2777 8.34783 15.3759 8.95801 15.375H34.0413C34.5165 15.375 34.9722 15.555 35.3082 15.8754C35.6442 16.1957 35.833 16.6303 35.833 17.0833V18.7917Z" fill="white"/>
</svg>
